<svg width="188" height="40" viewBox="0 0 188 40" fill="none" xmlns="http://www.w3.org/2000/svg">
<path d="M26.9833 3.33331H13.0166C6.94992 3.33331 3.33325 6.94998 3.33325 13.0166V26.9666C3.33325 33.05 6.94992 36.6666 13.0166 36.6666H26.9666C33.0333 36.6666 36.6499 33.05 36.6499 26.9833V13.0166C36.6666 6.94998 33.0499 3.33331 26.9833 3.33331ZM19.1666 28.75C19.1666 29.35 18.5666 29.75 18.0166 29.5166C15.9999 28.65 13.3666 27.85 11.5333 27.6166L11.2166 27.5833C10.1999 27.45 9.36658 26.5 9.36658 25.4666V12.6333C9.36658 11.35 10.3999 10.4 11.6666 10.5C13.7499 10.6666 16.8333 11.6666 18.7666 12.7666C19.0333 12.9166 19.1666 13.2 19.1666 13.4833V28.75ZM30.6332 25.45C30.6332 26.4833 29.7999 27.4333 28.7833 27.5666L28.4333 27.6C26.6166 27.85 23.9999 28.6333 21.9833 29.4833C21.4333 29.7166 20.8333 29.3166 20.8333 28.7166V13.4666C20.8333 13.1666 20.9833 12.8833 21.2499 12.7333C23.1833 11.65 26.1999 10.6833 28.2499 10.5H28.3166C29.5999 10.5 30.6332 11.5333 30.6332 12.8166V25.45Z" fill="#546FFF"/>
<path d="M52.352 33L60.736 9.16H65.408L73.792 33H69.76L67.936 27.656H58.24L56.384 33H52.352ZM59.328 24.296H66.784L62.56 11.816H63.616L59.328 24.296ZM75.3083 39.4V15.688H78.7643V19.272L78.3483 18.44C78.9883 17.4587 79.8416 16.6907 80.9083 16.136C81.9749 15.5813 83.1909 15.304 84.5563 15.304C86.1989 15.304 87.6709 15.6987 88.9723 16.488C90.2949 17.2773 91.3296 18.3547 92.0763 19.72C92.8443 21.0853 93.2283 22.6213 93.2283 24.328C93.2283 26.0347 92.8443 27.5707 92.0763 28.936C91.3296 30.3013 90.3056 31.3893 89.0043 32.2C87.7029 32.9893 86.2203 33.384 84.5563 33.384C83.2123 33.384 81.9856 33.1067 80.8763 32.552C79.7883 31.9973 78.9456 31.1973 78.3483 30.152L78.9243 29.48V39.4H75.3083ZM84.2043 30.024C85.2283 30.024 86.1349 29.7787 86.9243 29.288C87.7136 28.7973 88.3323 28.1253 88.7803 27.272C89.2496 26.3973 89.4843 25.416 89.4843 24.328C89.4843 23.24 89.2496 22.2693 88.7803 21.416C88.3323 20.5627 87.7136 19.8907 86.9243 19.4C86.1349 18.9093 85.2283 18.664 84.2043 18.664C83.2016 18.664 82.2949 18.9093 81.4843 19.4C80.6949 19.8907 80.0656 20.5627 79.5963 21.416C79.1483 22.2693 78.9243 23.24 78.9243 24.328C78.9243 25.416 79.1483 26.3973 79.5963 27.272C80.0656 28.1253 80.6949 28.7973 81.4843 29.288C82.2949 29.7787 83.2016 30.024 84.2043 30.024ZM95.7858 39.4V15.688H99.2418V19.272L98.8258 18.44C99.4658 17.4587 100.319 16.6907 101.386 16.136C102.452 15.5813 103.668 15.304 105.034 15.304C106.676 15.304 108.148 15.6987 109.45 16.488C110.772 17.2773 111.807 18.3547 112.554 19.72C113.322 21.0853 113.706 22.6213 113.706 24.328C113.706 26.0347 113.322 27.5707 112.554 28.936C111.807 30.3013 110.783 31.3893 109.482 32.2C108.18 32.9893 106.698 33.384 105.034 33.384C103.69 33.384 102.463 33.1067 101.354 32.552C100.266 31.9973 99.4231 31.1973 98.8258 30.152L99.4018 29.48V39.4H95.7858ZM104.682 30.024C105.706 30.024 106.612 29.7787 107.402 29.288C108.191 28.7973 108.81 28.1253 109.258 27.272C109.727 26.3973 109.962 25.416 109.962 24.328C109.962 23.24 109.727 22.2693 109.258 21.416C108.81 20.5627 108.191 19.8907 107.402 19.4C106.612 18.9093 105.706 18.664 104.682 18.664C103.679 18.664 102.772 18.9093 101.962 19.4C101.172 19.8907 100.543 20.5627 100.074 21.416C99.6258 22.2693 99.4018 23.24 99.4018 24.328C99.4018 25.416 99.6258 26.3973 100.074 27.272C100.543 28.1253 101.172 28.7973 101.962 29.288C102.772 29.7787 103.679 30.024 104.682 30.024Z" fill="#141522"/>
</svg>
